<svg width="389" height="59" viewBox="0 0 389 59" fill="none" xmlns="http://www.w3.org/2000/svg">
<path d="M88.5283 39.84C85.7563 39.84 83.3203 39.196 81.2203 37.908C79.1483 36.592 77.5383 34.828 76.3903 32.616C75.2423 30.404 74.6683 27.912 74.6683 25.14C74.6683 22.368 75.2423 19.876 76.3903 17.664C77.5383 15.452 79.1483 13.702 81.2203 12.414C83.3203 11.098 85.7563 10.44 88.5283 10.44C91.3283 10.44 93.7503 11.098 95.7943 12.414C97.8663 13.702 99.4763 15.452 100.624 17.664C101.772 19.876 102.346 22.368 102.346 25.14C102.346 27.912 101.772 30.404 100.624 32.616C99.4763 34.828 97.8663 36.592 95.7943 37.908C93.7503 39.196 91.3283 39.84 88.5283 39.84ZM88.5283 37.95C90.2363 37.95 91.6783 37.46 92.8543 36.48C94.0583 35.472 94.9683 34.016 95.5843 32.112C96.2283 30.18 96.5503 27.856 96.5503 25.14C96.5503 22.396 96.2283 20.072 95.5843 18.168C94.9683 16.264 94.0583 14.822 92.8543 13.842C91.6783 12.834 90.2363 12.33 88.5283 12.33C86.8483 12.33 85.4063 12.834 84.2023 13.842C83.0263 14.822 82.1163 16.264 81.4723 18.168C80.8563 20.072 80.5483 22.396 80.5483 25.14C80.5483 27.856 80.8563 30.18 81.4723 32.112C82.1163 34.016 83.0263 35.472 84.2023 36.48C85.4063 37.46 86.8483 37.95 88.5283 37.95ZM115.467 39.42C113.507 39.42 111.799 39.014 110.343 38.202C108.915 37.39 107.795 36.2 106.983 34.632C106.199 33.064 105.807 31.16 105.807 28.92V27.66C105.807 24.972 105.975 22.76 106.311 21.024C106.675 19.26 107.179 17.86 107.823 16.824C108.495 15.788 109.279 15.004 110.175 14.472C111.099 13.912 112.107 13.506 113.199 13.254L119.037 11.91C120.213 11.63 121.137 11.35 121.809 11.07C122.509 10.762 122.915 10.342 123.027 9.81H124.287V13.17C124.287 13.702 124.119 14.234 123.783 14.766C123.475 15.298 122.803 15.676 121.767 15.9L114.879 17.454C113.759 17.706 112.723 18.168 111.771 18.84C110.847 19.512 110.091 20.436 109.503 21.612C108.943 22.76 108.621 24.216 108.537 25.98H108.747C109.391 24.3 110.301 22.97 111.477 21.99C112.681 21.01 114.291 20.52 116.307 20.52C117.987 20.52 119.485 20.856 120.801 21.528C122.145 22.2 123.195 23.236 123.951 24.636C124.735 26.008 125.127 27.786 125.127 29.97C125.127 32.126 124.721 33.904 123.909 35.304C123.125 36.704 122.005 37.74 120.549 38.412C119.121 39.084 117.427 39.42 115.467 39.42ZM115.467 37.53C116.027 37.53 116.615 37.32 117.231 36.9C117.847 36.48 118.365 35.724 118.785 34.632C119.233 33.54 119.457 31.986 119.457 29.97C119.457 28.01 119.233 26.484 118.785 25.392C118.365 24.3 117.847 23.53 117.231 23.082C116.615 22.634 116.027 22.41 115.467 22.41C114.907 22.41 114.319 22.634 113.703 23.082C113.087 23.53 112.555 24.3 112.107 25.392C111.687 26.484 111.477 28.01 111.477 29.97C111.477 31.986 111.687 33.54 112.107 34.632C112.555 35.724 113.087 36.48 113.703 36.9C114.319 37.32 114.907 37.53 115.467 37.53ZM160.782 39.42C159.802 39.42 158.864 39.224 157.968 38.832C157.072 38.44 156.19 37.81 155.322 36.942C154.482 36.046 153.6 34.842 152.676 33.33L148.476 26.316H146.796V39H141.294V16.74C141.294 15.48 141.112 14.472 140.748 13.716C140.412 12.932 139.614 12.54 138.354 12.54H137.934V11.28H149.526C150.282 11.28 151.15 11.336 152.13 11.448C153.138 11.532 154.146 11.728 155.154 12.036C156.162 12.316 157.1 12.736 157.968 13.296C158.836 13.856 159.536 14.598 160.068 15.522C160.6 16.418 160.866 17.538 160.866 18.882C160.866 20.366 160.53 21.584 159.858 22.536C159.214 23.46 158.374 24.188 157.338 24.72C156.302 25.252 155.21 25.672 154.062 25.98L158.472 33.33C159.536 35.122 160.516 36.312 161.412 36.9C162.308 37.488 163.064 37.838 163.68 37.95V39C163.456 39.112 163.05 39.21 162.462 39.294C161.902 39.378 161.342 39.42 160.782 39.42ZM146.796 24.636H149.316C149.988 24.636 150.66 24.538 151.332 24.342C152.004 24.146 152.606 23.824 153.138 23.376C153.698 22.928 154.146 22.326 154.482 21.57C154.818 20.814 154.986 19.89 154.986 18.798C154.986 17.706 154.818 16.796 154.482 16.068C154.174 15.312 153.74 14.71 153.18 14.262C152.648 13.786 152.046 13.45 151.374 13.254C150.73 13.058 150.072 12.96 149.4 12.96C149.176 12.96 148.84 12.974 148.392 13.002C147.972 13.03 147.44 13.114 146.796 13.254V24.636ZM166.503 39V24.72C166.503 23.46 166.321 22.452 165.957 21.696C165.621 20.912 164.823 20.52 163.563 20.52H163.143V19.26H168.183C169.163 19.26 169.919 19.428 170.451 19.764C171.011 20.1 171.403 20.66 171.627 21.444C171.851 22.228 171.963 23.32 171.963 24.72V39H166.503ZM169.233 16.992C168.169 16.992 167.371 16.67 166.839 16.026C166.335 15.382 166.083 14.64 166.083 13.8C166.083 13.072 166.307 12.498 166.755 12.078C167.203 11.658 167.749 11.448 168.393 11.448C169.457 11.448 170.241 11.77 170.745 12.414C171.277 13.058 171.543 13.8 171.543 14.64C171.543 15.368 171.319 15.942 170.871 16.362C170.423 16.782 169.877 16.992 169.233 16.992ZM183.874 39.42C181.97 39.42 180.472 38.902 179.38 37.866C178.316 36.83 177.784 35.304 177.784 33.288V21.15H175.264V19.26H177.784V15.48L179.884 12.96H183.244V19.26H187.864V21.15H183.244V33.54C183.244 35.108 183.426 36.172 183.79 36.732C184.182 37.264 184.728 37.53 185.428 37.53C186.156 37.53 186.8 37.404 187.36 37.152C187.92 36.9 188.382 36.648 188.746 36.396L189.334 37.572C188.774 38.076 188.046 38.51 187.15 38.874C186.254 39.238 185.162 39.42 183.874 39.42ZM192.589 39V24.72C192.589 23.46 192.421 22.452 192.085 21.696C191.749 20.912 190.951 20.52 189.691 20.52H189.271V19.26H193.429C194.269 19.26 194.997 19.386 195.613 19.638C196.229 19.862 196.691 20.268 196.999 20.856H197.167C197.671 20.408 198.357 19.96 199.225 19.512C200.121 19.064 201.199 18.84 202.459 18.84C203.523 18.84 204.447 18.994 205.231 19.302C206.015 19.582 206.659 19.918 207.163 20.31C207.695 20.674 208.059 20.982 208.255 21.234C208.815 20.618 209.543 20.072 210.439 19.596C211.335 19.092 212.595 18.84 214.219 18.84C215.787 18.84 217.117 19.106 218.209 19.638C219.301 20.17 220.127 21.01 220.687 22.158C221.275 23.278 221.569 24.748 221.569 26.568V39H216.109V26.526C216.109 24.482 215.787 23.04 215.143 22.2C214.499 21.36 213.701 20.94 212.749 20.94C211.965 20.94 211.251 21.094 210.607 21.402C209.991 21.71 209.501 22.088 209.137 22.536C209.361 22.956 209.529 23.53 209.641 24.258C209.753 24.958 209.809 25.728 209.809 26.568V39H204.349V26.526C204.349 24.482 204.027 23.04 203.383 22.2C202.739 21.36 201.941 20.94 200.989 20.94C200.457 20.94 199.911 21.094 199.351 21.402C198.819 21.682 198.385 21.976 198.049 22.284V39H192.589ZM235.395 39.714C234.247 39.714 233.113 39.602 231.993 39.378C230.873 39.154 229.851 38.832 228.927 38.412C228.003 37.964 227.261 37.432 226.701 36.816C226.169 36.172 225.903 35.458 225.903 34.674V29.76H227.079C227.527 32.672 228.423 34.744 229.767 35.976C231.139 37.208 233.001 37.824 235.353 37.824C236.417 37.824 237.341 37.67 238.125 37.362C238.937 37.054 239.553 36.606 239.973 36.018C240.421 35.402 240.645 34.646 240.645 33.75C240.645 32.546 240.253 31.552 239.469 30.768C238.713 29.956 237.663 29.144 236.319 28.332L231.153 25.224C229.249 24.104 227.905 22.956 227.121 21.78C226.337 20.604 225.945 19.246 225.945 17.706C225.945 15.494 226.785 13.744 228.465 12.456C230.173 11.168 232.469 10.524 235.353 10.524C236.501 10.524 237.635 10.636 238.755 10.86C239.875 11.084 240.897 11.42 241.821 11.868C242.745 12.288 243.473 12.806 244.005 13.422C244.565 14.038 244.845 14.752 244.845 15.564V20.478H243.669C243.193 17.566 242.297 15.494 240.981 14.262C239.665 13.03 237.943 12.414 235.815 12.414C234.807 12.414 233.925 12.582 233.169 12.918C232.441 13.254 231.881 13.73 231.489 14.346C231.097 14.934 230.901 15.648 230.901 16.488C230.901 17.664 231.293 18.616 232.077 19.344C232.889 20.072 233.953 20.828 235.269 21.612L240.435 24.678C242.339 25.798 243.725 26.904 244.593 27.996C245.489 29.06 245.937 30.362 245.937 31.902C245.937 34.31 245.027 36.214 243.207 37.614C241.387 39.014 238.783 39.714 235.395 39.714ZM256.964 39.42C255.06 39.42 253.562 38.902 252.47 37.866C251.406 36.83 250.874 35.304 250.874 33.288V21.15H248.354V19.26H250.874V15.48L252.974 12.96H256.334V19.26H260.954V21.15H256.334V33.54C256.334 35.108 256.516 36.172 256.88 36.732C257.272 37.264 257.818 37.53 258.518 37.53C259.246 37.53 259.89 37.404 260.45 37.152C261.01 36.9 261.472 36.648 261.836 36.396L262.424 37.572C261.864 38.076 261.136 38.51 260.24 38.874C259.344 39.238 258.252 39.42 256.964 39.42ZM266.183 47.4V45.93C267.639 45.93 268.857 45.65 269.837 45.09C270.817 44.53 271.615 43.452 272.231 41.856L273.113 39.588L265.553 23.04C265.105 22.004 264.545 21.22 263.873 20.688C263.229 20.128 262.487 19.792 261.647 19.68V18.84H265.343C266.603 18.84 267.709 19.148 268.661 19.764C269.613 20.352 270.327 21.164 270.803 22.2L275.633 32.784L280.757 19.26H282.983L274.499 41.73C273.939 43.242 273.323 44.404 272.651 45.216C272.007 46.056 271.293 46.63 270.509 46.938C269.725 47.246 268.843 47.4 267.863 47.4H266.183ZM286.376 39V16.74C286.376 15.48 286.194 14.472 285.83 13.716C285.494 12.932 284.696 12.54 283.436 12.54H283.016V11.28H288.056C289.036 11.28 289.792 11.448 290.324 11.784C290.884 12.12 291.276 12.68 291.5 13.464C291.724 14.248 291.836 15.34 291.836 16.74V39H286.376ZM305.731 39.42C303.771 39.42 302.063 38.972 300.607 38.076C299.151 37.18 298.031 35.962 297.247 34.422C296.463 32.854 296.071 31.09 296.071 29.13C296.071 26.89 296.477 25.014 297.289 23.502C298.101 21.962 299.207 20.8 300.607 20.016C302.007 19.232 303.575 18.84 305.311 18.84C307.047 18.84 308.615 19.19 310.015 19.89C311.415 20.59 312.521 21.57 313.333 22.83C314.145 24.09 314.551 25.56 314.551 27.24L314.383 29.886H301.741C301.741 32.658 302.161 34.632 303.001 35.808C303.869 36.956 304.989 37.53 306.361 37.53C307.817 37.53 308.993 37.194 309.889 36.522C310.813 35.85 311.639 35.024 312.367 34.044L313.669 35.01C313.277 35.626 312.745 36.284 312.073 36.984C311.429 37.656 310.589 38.23 309.553 38.706C308.545 39.182 307.271 39.42 305.731 39.42ZM301.741 27.996H308.881C308.881 25.224 308.545 23.32 307.873 22.284C307.229 21.248 306.375 20.73 305.311 20.73C304.695 20.73 304.107 20.954 303.547 21.402C303.015 21.85 302.581 22.606 302.245 23.67C301.909 24.706 301.741 26.148 301.741 27.996Z" fill="white"/>
<path d="M0 22H14C21.732 22 28 28.268 28 36H14C6.26801 36 0 29.732 0 22Z" fill="#018ABE"/>
<path d="M389 22H375C367.268 22 361 28.268 361 36H375C382.732 36 389 29.732 389 22Z" fill="#018ABE"/>
</svg>
